<?xml version="1.0" standalone="no"?>
<!DOCTYPE svg PUBLIC "-//W3C//DTD SVG 20010904//EN"
 "http://www.w3.org/TR/2001/REC-SVG-20010904/DTD/svg10.dtd">
<svg version="1.0" xmlns="http://www.w3.org/2000/svg"
 width="1280.000000pt" height="1216.000000pt" viewBox="0 0 1280.000000 1216.000000"
 preserveAspectRatio="xMidYMid meet">
<metadata>
Created by potrace 1.15, written by Peter Selinger 2001-2017
</metadata>
<g transform="translate(0.000000,1216.000000) scale(0.100000,-0.100000)"
fill="#000000" stroke="none">
<path d="M8320 12153 c-440 -44 -844 -292 -1102 -677 -348 -520 -382 -1212
-87 -1765 64 -119 111 -188 205 -301 40 -49 68 -87 61 -85 -40 15 -1156 307
-1172 307 -26 0 -1866 -499 -1876 -509 -4 -4 -170 -368 -369 -808 -383 -849
-378 -839 -611 -1251 -82 -147 -147 -270 -142 -274 8 -8 674 -163 678 -158 1
2 295 355 654 786 358 430 658 782 666 782 24 0 469 -112 478 -120 5 -4 -12
-101 -37 -216 -62 -289 -376 -1739 -437 -2019 -27 -126 -59 -270 -69 -320 -10
-49 -62 -288 -115 -530 -52 -242 -95 -449 -95 -460 0 -14 -320 -322 -1045
-1005 -575 -542 -1050 -984 -1055 -983 -5 2 -507 372 -1114 823 l-1105 819
-316 -155 -315 -156 108 -209 107 -209 645 -843 c355 -464 822 -1075 1039
-1359 l394 -515 176 72 c97 40 374 153 616 253 242 99 1050 430 1795 735
l1355 555 1005 261 c553 144 1011 264 1018 266 15 6 -13 73 261 -620 864
-2188 863 -2185 876 -2185 7 0 149 -18 316 -40 168 -22 306 -35 309 -30 3 5
32 190 65 411 l59 402 -258 1681 c-142 924 -261 1684 -264 1687 -6 6 -883 160
-2022 357 -179 30 -326 56 -328 58 -3 1 65 182 465 1244 63 168 207 550 320
850 112 300 208 549 212 553 7 7 405 -149 1893 -740 274 -109 371 -143 380
-135 7 6 416 550 908 1210 l895 1199 165 88 c91 49 166 89 168 90 5 4 120 590
117 596 -2 3 -119 59 -259 124 -234 108 -257 117 -273 103 -10 -8 -518 -425
-1130 -925 l-1111 -911 -702 468 -701 467 92 17 c399 73 752 309 988 661 135
201 226 433 267 680 26 156 24 419 -4 577 -129 714 -666 1246 -1342 1328 -80
9 -222 11 -300 3z"/>
</g>
</svg>
